<svg xmlns="http://www.w3.org/2000/svg" viewBox="0 0 64 64" fill="currentcolor">
  <path d="M45.07 64H18.75C8.36 63.98-.02 55.48 0 45.09V18.77C.02 8.38 8.51-.02 18.89 0h16.36C45.64.02 54.02 8.5 54 18.89v25.92c0 2.66-1.16 5.04-3.22 6.7-2.08 1.67-5.04 2.5-8.56 2.49H19.17c-5.11-.01-9.18-4.17-9.17-9.29V19.27c.01-5.46 4.52-9.28 10.99-9.27h13.79c5.11.01 9.22 4.23 9.21 9.35v24.3c0 .85-.53 1.62-1.32 1.95-.79.32-1.7.14-2.3-.46L23 27.72V43.6c0 1.17-.94 2.11-2.11 2.11s-2.1-.95-2.09-2.12V22.61c0-.85.55-1.62 1.34-1.95.79-.33 1.7-.14 2.3.46L39.8 38.53V19.34c0-2.79-2.24-5.13-5.02-5.14H20.99c-4.12 0-6.78 2.01-6.78 5.08v25.44c0 2.79 2.19 5.07 4.98 5.08h23.05c4.71.01 7.56-1.83 7.57-5V18.88c.02-8.06-6.5-14.66-14.56-14.68H18.88C10.82 4.18 4.21 10.72 4.2 18.78V45.1c-.02 8.06 6.5 14.69 14.56 14.7h26.32c8.06.02 14.7-6.52 14.72-14.58V2.46c0-1.17.98-2.11 2.14-2.11S64 1.3 64 2.47v42.76C63.98 55.62 55.46 64.02 45.07 64z" />
</svg>
