<svg width="120" height="120" viewBox="0 0 120 120" fill="none" xmlns="http://www.w3.org/2000/svg">
<path fill-rule="evenodd" clip-rule="evenodd" d="M35.0702 17C25.6426 17 18 24.6259 18 34.0329V36.9575V83.333V86.1095C18 95.5983 25.6742 103.29 35.1409 103.29H85.3896C94.8562 103.29 102.531 95.5983 102.531 86.1095L102.531 84.6253V36.1377H92.786L92.786 77.4555H92.7357V86.1095C92.7357 90.1761 89.4467 93.4728 85.3896 93.4728H35.1409C31.0838 93.4728 27.7948 90.1761 27.7948 86.1095V36.9575H27.7544V34.0329C27.7544 30.0013 31.0298 26.7331 35.0702 26.7331H63.7407C67.7811 26.7331 71.0565 30.0013 71.0565 34.0329V36.254H71.0466V61.5394C71.0466 62.3046 71.0684 63.1245 71.1121 63.9991C71.1558 64.8517 71.2322 65.7372 71.3415 66.6555L48.6347 37.9593C48.3289 37.5877 48.0558 37.2925 47.8155 37.0739C47.5753 36.8552 47.3241 36.6912 47.0619 36.5819C46.7998 36.4507 46.5049 36.3633 46.1772 36.3196C45.8496 36.2758 45.4455 36.254 44.9649 36.254H39.1326V84.0372H48.8968V58.4238C48.8968 57.7242 48.875 56.9808 48.8313 56.1937C48.8094 55.3847 48.7548 54.5539 48.6675 53.7012L71.1776 82.2006C71.7456 82.8784 72.3135 83.3594 72.8815 83.6436C73.4712 83.906 74.1921 84.0372 75.044 84.0372H80.8108V43.1841H80.8109V34.0329C80.8109 24.6259 73.1683 17 63.7407 17H35.0702Z" fill="url(#paint0_linear_2023_419)"/>
<defs>
<linearGradient id="paint0_linear_2023_419" x1="21.1621" y1="-3.95424" x2="126.411" y2="16.1165" gradientUnits="userSpaceOnUse">
<stop stop-color="#141F42"/>
<stop offset="0.470772" stop-color="#9C096C"/>
<stop offset="1" stop-color="#2300C5"/>
</linearGradient>
</defs>
</svg>
